# File created by Blade
# Date/Time:  Thu Sep 25 17:43:48 2014
# Frame Rate: 120.000 fps
#------------------------------------------------------
:FULLY-SPECIFIED
:DEGREES
104
root -10.049806 31.680906 0.385779 -357.686315 -116.326894 24.059238
Spine -18.223965 16.774804 -0.375408
Head -18.180388 9.294910 12.867761
LeftShoulder -20.091674 27.391622 7.846611
LeftArm 10.613633 12.627144 -60.407569
LeftForeArm -2.044343 -0.000000 11.402916
LeftHand -29.019636 -0.000000 -10.392943
LeftHandThumb1 -26.253704 0.000000 33.147579
RightShoulder -19.393764 5.454808 -24.650058
RightArm -26.009758 -0.517710 59.611145
RightForeArm -14.449523 -0.000000 16.098314
RightHand -8.181711 -0.000000 5.778311
RightHandThumb1 -24.326973 -0.000000 -32.862282
LeftUpLeg -48.608581 -0.404533 9.604462
LeftLeg 38.628640 -0.000000 -0.000000
LeftFoot -23.222016 22.001672 333.793096
LeftToeBase 6.063194 -0.000000 -0.000000
RightUpLeg 15.666785 -11.444707 -22.015604
RightLeg 31.006342 -0.000000 -0.000000
RightFoot 6.802288 -15.590305 -17.794539
RightToeBase -4.702014 -0.000000 0.000000
105
root -10.329383 31.470056 0.386751 -357.638734 -114.121968 22.300905
Spine -15.356510 14.625625 -0.916403
Head -20.178926 8.737522 12.984361
LeftShoulder -17.901747 27.127931 8.787842
LeftArm 13.516166 11.876717 -62.521521
LeftForeArm -0.699201 -0.000000 12.724143
LeftHand -28.814310 -0.000000 -10.794281
LeftHandThumb1 -26.253704 0.000000 33.147579
RightShoulder -18.936369 4.861659 -23.944410
RightArm -24.991450 -0.425918 64.717035
RightForeArm -13.340112 -0.000000 14.881788
RightHand -7.683920 0.000000 7.326930
RightHandThumb1 -24.326973 -0.000000 -32.862282
LeftUpLeg -47.762643 0.210151 6.844521
LeftLeg 39.714283 -0.000000 -0.000000
LeftFoot -22.902862 19.657769 336.181524
LeftToeBase 5.416791 -0.000000 -0.000000
RightUpLeg 15.309286 -12.251781 -21.230757
RightLeg 34.406276 -0.000000 -0.000000
RightFoot 5.250116 -17.948472 -18.379437
RightToeBase -2.187949 -0.000000 0.000000
106
root -10.615093 31.358299 0.411814 -357.224117 -112.874314 20.598686
Spine -13.155562 13.193752 -1.358802
Head -21.508965 8.256959 12.735154
LeftShoulder -15.803210 26.328052 9.970710
LeftArm 15.844184 12.223762 -64.404978
LeftForeArm 0.629084 -0.000000 14.218125
LeftHand -28.026262 -0.000000 -10.822338
LeftHandThumb1 -26.253704 0.000000 33.147579
RightShoulder -18.443465 4.812320 -23.714931
RightArm -23.991071 -0.936214 69.877503
RightForeArm -12.298662 -0.000000 13.440480
RightHand -7.132814 -0.000000 8.985271
RightHandThumb1 -24.326973 -0.000000 -32.862282
LeftUpLeg -46.538523 1.007439 4.777312
LeftLeg 39.943942 -0.000000 -0.000000
LeftFoot -22.874058 17.607180 337.937327
LeftToeBase 3.466860 -0.000000 -0.000000
RightUpLeg 13.817104 -12.803743 -20.408596
RightLeg 37.873361 -0.000000 -0.000000
RightFoot 3.181840 -21.024799 -17.578508
RightToeBase -0.199050 -0.000000 0.000000
107
root -10.908604 31.326422 0.468760 -356.095710 -112.507510 18.560279
Spine -11.589468 12.411506 -1.905173
Head -22.263256 8.073020 12.222686
LeftShoulder -14.185502 25.183795 10.658137
LeftArm 18.153919 13.727465 -65.207918
LeftForeArm 2.038707 -0.000000 15.721238
LeftHand -27.894817 -0.000000 -9.665582
LeftHandThumb1 -26.253704 0.000000 33.147579
RightShoulder -18.008836 5.588638 -23.659991
RightArm -23.397724 -2.091338 74.698309
RightForeArm -11.356068 0.000000 12.048923
RightHand -6.955482 -0.000000 9.662566
RightHandThumb1 -24.326973 -0.000000 -32.862282
LeftUpLeg -44.886681 1.321380 3.297306
LeftLeg 39.139988 -0.000000 -0.000000
LeftFoot -23.299138 16.939497 339.325880
LeftToeBase 2.891750 -0.000000 -0.000000
RightUpLeg 11.326946 -12.670742 -19.561787
RightLeg 41.173486 -0.000000 -0.000000
RightFoot 1.075660 -23.961426 -16.239833
RightToeBase -0.644499 -0.000000 0.000000
108
root -11.178049 31.347644 0.540598 -355.055766 -112.879276 16.818630
Spine -10.476484 12.117016 -2.251183
Head -22.108020 8.148310 11.491418
LeftShoulder -12.765036 23.819632 11.077646
LeftArm 20.341552 15.746636 -65.309683
LeftForeArm 3.089445 -0.000000 17.173141
LeftHand -28.083804 0.000000 -7.603111
LeftHandThumb1 -26.253704 0.000000 33.147579
RightShoulder -17.281997 7.162423 -23.791077
RightArm -23.564478 -2.953558 78.972627
RightForeArm -10.889868 -0.000000 11.190683
RightHand -6.744303 -0.000000 10.023647
RightHandThumb1 -24.326973 -0.000000 -32.862282
LeftUpLeg -43.137771 1.319587 2.312701
LeftLeg 37.938707 -0.000000 -0.000000
LeftFoot -24.119680 17.510805 339.892921
LeftToeBase 4.670771 -0.000000 -0.000000
RightUpLeg 8.197509 -11.778333 -18.505157
RightLeg 44.335578 -0.000000 -0.000000
RightFoot -0.774192 -26.295275 -15.229181
RightToeBase -1.554787 -0.000000 0.000000
109
root -11.461188 31.409445 0.595365 -354.278126 -113.570913 15.388816
Spine -9.671991 12.074351 -2.485829
Head -21.358520 8.214180 10.664595
LeftShoulder -11.738528 22.480810 11.199155
LeftArm 23.010346 18.553771 -64.232355
LeftForeArm 2.993028 -0.000000 18.365201
LeftHand -28.713518 -0.000000 -5.556933
LeftHandThumb1 -26.253704 0.000000 33.147579
RightShoulder -16.758567 8.770919 -23.854915
RightArm -23.847426 -3.969890 82.814712
RightForeArm -10.554838 -0.000000 10.937768
RightHand -6.581019 0.000000 9.868894
RightHandThumb1 -24.326973 -0.000000 -32.862282
LeftUpLeg -41.225649 0.784083 1.926021
LeftLeg 36.437699 -0.000000 -0.000000
LeftFoot -24.950675 18.238313 339.569818
LeftToeBase 5.457953 -0.000000 -0.000000
RightUpLeg 5.055322 -10.202160 -17.223895
RightLeg 46.996945 -0.000000 -0.000000
RightFoot -2.667611 -28.018950 -14.338552
RightToeBase -1.293446 -0.000000 0.000000
110
root -11.669488 31.513902 0.642604 -353.731187 -114.584681 14.760096
Spine -9.407781 12.406498 -2.503226
Head -20.647635 8.567714 9.637635
LeftShoulder -11.149811 21.213734 11.096812
LeftArm 26.357303 21.775812 -62.196947
LeftForeArm 2.729437 -0.000000 19.372813
LeftHand -29.078864 -0.000000 -1.687870
LeftHandThumb1 -26.253704 0.000000 33.147579
RightShoulder -16.524738 10.082412 -23.805650
RightArm -23.824761 -5.036988 86.168401
RightForeArm -10.834237 0.000000 11.145509
RightHand -6.439701 -0.000000 9.571562
RightHandThumb1 -24.326973 -0.000000 -32.862282
LeftUpLeg -39.918609 0.601770 1.839407
LeftLeg 34.881431 -0.000000 -0.000000
LeftFoot -25.343978 19.168461 338.996409
LeftToeBase 4.996916 -0.000000 -0.000000
RightUpLeg 1.165895 -8.106381 -15.472411
RightLeg 49.518993 -0.000000 -0.000000
RightFoot -4.534752 -29.331824 -13.805541
RightToeBase -1.107355 -0.000000 0.000000
111
root -11.882781 31.651100 0.716579 -352.984340 -115.739202 14.024469
Spine -9.287019 12.809420 -2.536228
Head -19.951322 8.984652 8.454924
LeftShoulder -10.920522 20.297052 10.722169
LeftArm 29.780835 23.927059 -59.970938
LeftForeArm 3.266752 -0.000000 21.236710
LeftHand -30.120265 -0.000000 1.434810
LeftHandThumb1 -26.253704 0.000000 33.147579
RightShoulder -16.476483 10.636952 -23.556351
RightArm -22.985416 -6.530827 89.089263
RightForeArm -11.166590 -0.000000 11.563338
RightHand -5.972969 -0.000000 9.299660
RightHandThumb1 -24.326973 -0.000000 -32.862282
LeftUpLeg -38.693141 0.367998 1.661746
LeftLeg 33.195890 -0.000000 -0.000000
LeftFoot -25.431245 20.549311 338.579599
LeftToeBase 4.742011 -0.000000 -0.000000
RightUpLeg -2.727633 -5.921859 -14.050745
RightLeg 51.592251 -0.000000 -0.000000
RightFoot -6.257684 -30.071635 -12.904846
RightToeBase -1.765361 -0.000000 0.000000
112
root -12.100338 31.809529 0.807120 -351.835844 -116.859136 12.930253
Spine -9.288846 13.145643 -2.856502
Head -19.414112 9.561145 7.527698
LeftShoulder -10.934531 19.660835 10.451824
LeftArm 32.895809 24.954430 -58.229703
LeftForeArm 5.101700 -0.000000 24.083245
LeftHand -31.265255 -0.000000 5.570665
LeftHandThumb1 -26.253704 0.000000 33.147579
RightShoulder -16.553818 10.712181 -23.029751
RightArm -21.672963 -8.790555 91.615153
RightForeArm -10.931869 0.000000 11.992570
RightHand -5.898617 -0.000000 8.372063
RightHandThumb1 -24.326973 -0.000000 -32.862282
LeftUpLeg -37.403022 -0.259824 1.404066
LeftLeg 31.114725 -0.000000 -0.000000
LeftFoot -25.328521 22.243554 338.001811
LeftToeBase 5.124257 -0.000000 -0.000000
RightUpLeg -6.472810 -3.849219 -13.072362
RightLeg 53.138051 -0.000000 -0.000000
RightFoot -7.948750 -30.479474 -11.813787
RightToeBase -2.186090 -0.000000 0.000000
113
root -12.317572 31.969965 0.877727 -350.977373 -117.813592 12.036253
Spine -9.197857 13.079730 -3.161463
Head -18.910935 10.365255 7.021941
LeftShoulder -10.934624 19.133674 10.550851
LeftArm 34.403696 23.984827 -58.641703
LeftForeArm 9.134957 -0.000000 28.192646
LeftHand -32.702777 -0.000000 7.484715
LeftHandThumb1 -26.253704 0.000000 33.147579
RightShoulder -16.470160 10.765607 -22.430378
RightArm -20.286953 -11.195074 93.706590
RightForeArm -10.317979 0.000000 12.392173
RightHand -5.975250 0.000000 7.730499
RightHandThumb1 -24.326973 -0.000000 -32.862282
LeftUpLeg -36.009794 -1.068540 1.286025
LeftLeg 28.992408 -0.000000 -0.000000
LeftFoot -25.045160 23.744444 337.365016
LeftToeBase 5.358410 -0.000000 -0.000000
RightUpLeg -9.814651 -1.884821 -12.164392
RightLeg 54.130508 -0.000000 -0.000000
RightFoot -9.086400 -31.020120 -10.880658
RightToeBase -2.723696 -0.000000 0.000000
114
root -12.517258 32.135500 0.921867 -350.449701 -118.515928 11.433081
Spine -8.993458 12.523630 -3.365352
Head -18.606582 11.472550 6.898019
LeftShoulder -11.026514 18.651633 10.914692
LeftArm 34.925370 22.363509 -60.125534
LeftForeArm 14.244283 0.000000 33.347348
LeftHand -34.501866 -0.000000 7.537725
LeftHandThumb1 -26.253704 0.000000 33.147579
RightShoulder -16.041649 11.020410 -21.794396
RightArm -19.121252 -13.157124 95.291572
RightForeArm -9.549012 0.000000 12.861135
RightHand -6.299241 -0.000000 7.119631
RightHandThumb1 -24.326973 -0.000000 -32.862282
LeftUpLeg -34.613591 -1.980373 1.328359
LeftLeg 26.917397 -0.000000 -0.000000
LeftFoot -24.626380 25.055587 336.773518
LeftToeBase 5.532160 -0.000000 -0.000000
RightUpLeg -12.860671 -0.072021 -11.195434
RightLeg 54.750257 -0.000000 -0.000000
RightFoot -9.960302 -31.837723 -10.081091
RightToeBase -2.477215 -0.000000 0.000000
115
root -12.729813 32.284816 0.957885 -349.948152 -119.014950 10.693998
Spine -8.622333 11.836449 -3.643219
Head -18.442422 12.570626 6.993610
LeftShoulder -10.805129 18.087258 11.705644
LeftArm 34.806358 20.817998 -62.306662
LeftForeArm 17.945811 -0.000000 38.604595
LeftHand -35.192641 -0.000000 8.265851
LeftHandThumb1 -26.253704 0.000000 33.147579
RightShoulder -15.566231 11.476418 -21.385659
RightArm -18.383142 -15.029381 96.738999
RightForeArm -8.501364 0.000000 13.380169
RightHand -6.186490 -0.000000 5.990418
RightHandThumb1 -24.326973 -0.000000 -32.862282
LeftUpLeg -33.103870 -3.027426 1.265421
LeftLeg 24.847501 -0.000000 -0.000000
LeftFoot -24.178299 26.264753 336.120450
LeftToeBase 5.271487 -0.000000 -0.000000
RightUpLeg -15.525100 1.438042 -10.468891
RightLeg 55.047964 -0.000000 -0.000000
RightFoot -10.820947 -33.012930 -9.585073
RightToeBase -2.444538 -0.000000 0.000000
